<svg width="130" height="36" viewBox="0 0 130 36" fill="none" xmlns="http://www.w3.org/2000/svg">
<g filter="url(#filter0_d_4_17)">
<path d="M10.9 21.175C9.61667 21.175 8.46667 20.9667 7.45 20.55C6.43333 20.1333 5.61667 19.5167 5 18.7C4.4 17.8833 4.08333 16.9 4.05 15.75H8.6C8.66667 16.4 8.89167 16.9 9.275 17.25C9.65833 17.5833 10.1583 17.75 10.775 17.75C11.4083 17.75 11.9083 17.6083 12.275 17.325C12.6417 17.025 12.825 16.6167 12.825 16.1C12.825 15.6667 12.675 15.3083 12.375 15.025C12.0917 14.7417 11.7333 14.5083 11.3 14.325C10.8833 14.1417 10.2833 13.9333 9.5 13.7C8.36667 13.35 7.44167 13 6.725 12.65C6.00833 12.3 5.39167 11.7833 4.875 11.1C4.35833 10.4167 4.1 9.525 4.1 8.425C4.1 6.79167 4.69167 5.51667 5.875 4.6C7.05833 3.66667 8.6 3.2 10.5 3.2C12.4333 3.2 13.9917 3.66667 15.175 4.6C16.3583 5.51667 16.9917 6.8 17.075 8.45H12.45C12.4167 7.88333 12.2083 7.44167 11.825 7.125C11.4417 6.79167 10.95 6.625 10.35 6.625C9.83333 6.625 9.41667 6.76667 9.1 7.05C8.78333 7.31667 8.625 7.70833 8.625 8.225C8.625 8.79167 8.89167 9.23333 9.425 9.55C9.95833 9.86667 10.7917 10.2083 11.925 10.575C13.0583 10.9583 13.975 11.325 14.675 11.675C15.3917 12.025 16.0083 12.5333 16.525 13.2C17.0417 13.8667 17.3 14.725 17.3 15.775C17.3 16.775 17.0417 17.6833 16.525 18.5C16.025 19.3167 15.2917 19.9667 14.325 20.45C13.3583 20.9333 12.2167 21.175 10.9 21.175ZM33.0809 13.8C33.0809 14.2 33.0559 14.6167 33.0059 15.05H23.3309C23.3975 15.9167 23.6725 16.5833 24.1559 17.05C24.6559 17.5 25.2642 17.725 25.9809 17.725C27.0475 17.725 27.7892 17.275 28.2059 16.375H32.7559C32.5225 17.2917 32.0975 18.1167 31.4809 18.85C30.8809 19.5833 30.1225 20.1583 29.2059 20.575C28.2892 20.9917 27.2642 21.2 26.1309 21.2C24.7642 21.2 23.5475 20.9083 22.4809 20.325C21.4142 19.7417 20.5809 18.9083 19.9809 17.825C19.3809 16.7417 19.0809 15.475 19.0809 14.025C19.0809 12.575 19.3725 11.3083 19.9559 10.225C20.5559 9.14167 21.3892 8.30833 22.4559 7.725C23.5225 7.14167 24.7475 6.85 26.1309 6.85C27.4809 6.85 28.6809 7.13333 29.7309 7.7C30.7809 8.26667 31.5975 9.075 32.1809 10.125C32.7809 11.175 33.0809 12.4 33.0809 13.8ZM28.7059 12.675C28.7059 11.9417 28.4559 11.3583 27.9559 10.925C27.4559 10.4917 26.8309 10.275 26.0809 10.275C25.3642 10.275 24.7559 10.4833 24.2559 10.9C23.7725 11.3167 23.4725 11.9083 23.3559 12.675H28.7059ZM39.6111 9.375C40.1111 8.60833 40.7361 8.00833 41.4861 7.575C42.2361 7.125 43.0695 6.9 43.9861 6.9V11.425H42.8111C41.7445 11.425 40.9445 11.6583 40.4111 12.125C39.8778 12.575 39.6111 13.375 39.6111 14.525V21H35.3361V7.05H39.6111V9.375ZM52.3045 17L55.3295 7.05H59.8795L54.9295 21H49.6545L44.7045 7.05H49.2795L52.3045 17ZM63.8289 5.6C63.0789 5.6 62.4622 5.38333 61.9789 4.95C61.5122 4.5 61.2789 3.95 61.2789 3.3C61.2789 2.63333 61.5122 2.08333 61.9789 1.65C62.4622 1.2 63.0789 0.974999 63.8289 0.974999C64.5622 0.974999 65.1622 1.2 65.6289 1.65C66.1122 2.08333 66.3539 2.63333 66.3539 3.3C66.3539 3.95 66.1122 4.5 65.6289 4.95C65.1622 5.38333 64.5622 5.6 63.8289 5.6ZM65.9539 7.05V21H61.6789V7.05H65.9539ZM75.402 21.175C74.1186 21.175 72.9686 20.9667 71.952 20.55C70.9353 20.1333 70.1186 19.5167 69.502 18.7C68.902 17.8833 68.5853 16.9 68.552 15.75H73.102C73.1686 16.4 73.3936 16.9 73.777 17.25C74.1603 17.5833 74.6603 17.75 75.277 17.75C75.9103 17.75 76.4103 17.6083 76.777 17.325C77.1436 17.025 77.327 16.6167 77.327 16.1C77.327 15.6667 77.177 15.3083 76.877 15.025C76.5936 14.7417 76.2353 14.5083 75.802 14.325C75.3853 14.1417 74.7853 13.9333 74.002 13.7C72.8686 13.35 71.9436 13 71.227 12.65C70.5103 12.3 69.8936 11.7833 69.377 11.1C68.8603 10.4167 68.602 9.525 68.602 8.425C68.602 6.79167 69.1936 5.51667 70.377 4.6C71.5603 3.66667 73.102 3.2 75.002 3.2C76.9353 3.2 78.4936 3.66667 79.677 4.6C80.8603 5.51667 81.4936 6.8 81.577 8.45H76.952C76.9186 7.88333 76.7103 7.44167 76.327 7.125C75.9436 6.79167 75.452 6.625 74.852 6.625C74.3353 6.625 73.9186 6.76667 73.602 7.05C73.2853 7.31667 73.127 7.70833 73.127 8.225C73.127 8.79167 73.3936 9.23333 73.927 9.55C74.4603 9.86667 75.2936 10.2083 76.427 10.575C77.5603 10.9583 78.477 11.325 79.177 11.675C79.8936 12.025 80.5103 12.5333 81.027 13.2C81.5436 13.8667 81.802 14.725 81.802 15.775C81.802 16.775 81.5436 17.6833 81.027 18.5C80.527 19.3167 79.7936 19.9667 78.827 20.45C77.8603 20.9333 76.7186 21.175 75.402 21.175ZM88.7078 9.025C89.1245 8.375 89.6995 7.85 90.4328 7.45C91.1661 7.05 92.0245 6.85 93.0078 6.85C94.1578 6.85 95.1995 7.14167 96.1328 7.725C97.0661 8.30833 97.7995 9.14167 98.3328 10.225C98.8828 11.3083 99.1578 12.5667 99.1578 14C99.1578 15.4333 98.8828 16.7 98.3328 17.8C97.7995 18.8833 97.0661 19.725 96.1328 20.325C95.1995 20.9083 94.1578 21.2 93.0078 21.2C92.0411 21.2 91.1828 21 90.4328 20.6C89.6995 20.2 89.1245 19.6833 88.7078 19.05V27.65H84.4328V7.05H88.7078V9.025ZM94.8078 14C94.8078 12.9333 94.5078 12.1 93.9078 11.5C93.3245 10.8833 92.5995 10.575 91.7328 10.575C90.8828 10.575 90.1578 10.8833 89.5578 11.5C88.9745 12.1167 88.6828 12.9583 88.6828 14.025C88.6828 15.0917 88.9745 15.9333 89.5578 16.55C90.1578 17.1667 90.8828 17.475 91.7328 17.475C92.5828 17.475 93.3078 17.1667 93.9078 16.55C94.5078 15.9167 94.8078 15.0667 94.8078 14ZM107.751 21.2C106.384 21.2 105.151 20.9083 104.051 20.325C102.967 19.7417 102.109 18.9083 101.476 17.825C100.859 16.7417 100.551 15.475 100.551 14.025C100.551 12.5917 100.867 11.3333 101.501 10.25C102.134 9.15 103.001 8.30833 104.101 7.725C105.201 7.14167 106.434 6.85 107.801 6.85C109.167 6.85 110.401 7.14167 111.501 7.725C112.601 8.30833 113.467 9.15 114.101 10.25C114.734 11.3333 115.051 12.5917 115.051 14.025C115.051 15.4583 114.726 16.725 114.076 17.825C113.442 18.9083 112.567 19.7417 111.451 20.325C110.351 20.9083 109.117 21.2 107.751 21.2ZM107.751 17.5C108.567 17.5 109.259 17.2 109.826 16.6C110.409 16 110.701 15.1417 110.701 14.025C110.701 12.9083 110.417 12.05 109.851 11.45C109.301 10.85 108.617 10.55 107.801 10.55C106.967 10.55 106.276 10.85 105.726 11.45C105.176 12.0333 104.901 12.8917 104.901 14.025C104.901 15.1417 105.167 16 105.701 16.6C106.251 17.2 106.934 17.5 107.751 17.5ZM125.094 17.375V21H122.919C121.369 21 120.16 20.625 119.294 19.875C118.427 19.1083 117.994 17.8667 117.994 16.15V10.6H116.294V7.05H117.994V3.65H122.269V7.05H125.069V10.6H122.269V16.2C122.269 16.6167 122.369 16.9167 122.569 17.1C122.769 17.2833 123.102 17.375 123.569 17.375H125.094Z" fill="white"/>
</g>
<defs>
<filter id="filter0_d_4_17" x="0.0499878" y="0.974976" width="129.044" height="34.675" filterUnits="userSpaceOnUse" color-interpolation-filters="sRGB">
<feFlood flood-opacity="0" result="BackgroundImageFix"/>
<feColorMatrix in="SourceAlpha" type="matrix" values="0 0 0 0 0 0 0 0 0 0 0 0 0 0 0 0 0 0 127 0" result="hardAlpha"/>
<feOffset dy="4"/>
<feGaussianBlur stdDeviation="2"/>
<feComposite in2="hardAlpha" operator="out"/>
<feColorMatrix type="matrix" values="0 0 0 0 0 0 0 0 0 0 0 0 0 0 0 0 0 0 0.25 0"/>
<feBlend mode="normal" in2="BackgroundImageFix" result="effect1_dropShadow_4_17"/>
<feBlend mode="normal" in="SourceGraphic" in2="effect1_dropShadow_4_17" result="shape"/>
</filter>
</defs>
</svg>
