<svg width="250" height="15" viewBox="0 0 250 15" fill="none" xmlns="http://www.w3.org/2000/svg">
<rect y="6.5625" width="108.268" height="0.9375" rx="0.46875" fill="white" fill-opacity="0.2"/>
<rect x="141.732" y="6.5625" width="108.268" height="0.9375" rx="0.46875" fill="white" fill-opacity="0.2"/>
<path d="M124.262 7.5V7.96875C124.262 8.61328 124.178 9.19141 124.01 9.70312C123.842 10.2148 123.602 10.6504 123.289 11.0098C122.981 11.3691 122.609 11.6445 122.176 11.8359C121.742 12.0234 121.262 12.1172 120.734 12.1172C120.211 12.1172 119.732 12.0234 119.299 11.8359C118.869 11.6445 118.496 11.3691 118.18 11.0098C117.863 10.6504 117.617 10.2148 117.441 9.70312C117.27 9.19141 117.184 8.61328 117.184 7.96875V7.5C117.184 6.85547 117.27 6.2793 117.441 5.77148C117.613 5.25977 117.856 4.82422 118.168 4.46484C118.484 4.10156 118.857 3.82617 119.287 3.63867C119.721 3.44727 120.199 3.35156 120.723 3.35156C121.25 3.35156 121.731 3.44727 122.164 3.63867C122.598 3.82617 122.971 4.10156 123.283 4.46484C123.596 4.82422 123.836 5.25977 124.004 5.77148C124.176 6.2793 124.262 6.85547 124.262 7.5ZM122.791 7.96875V7.48828C122.791 7.01172 122.744 6.5918 122.65 6.22852C122.561 5.86133 122.426 5.55469 122.246 5.30859C122.07 5.05859 121.854 4.87109 121.596 4.74609C121.338 4.61719 121.047 4.55273 120.723 4.55273C120.398 4.55273 120.109 4.61719 119.856 4.74609C119.602 4.87109 119.385 5.05859 119.205 5.30859C119.029 5.55469 118.895 5.86133 118.801 6.22852C118.707 6.5918 118.66 7.01172 118.66 7.48828V7.96875C118.66 8.44531 118.707 8.86719 118.801 9.23438C118.895 9.60156 119.031 9.91211 119.211 10.166C119.395 10.416 119.613 10.6055 119.867 10.7344C120.121 10.8594 120.41 10.9219 120.734 10.9219C121.063 10.9219 121.354 10.8594 121.607 10.7344C121.861 10.6055 122.076 10.416 122.252 10.166C122.428 9.91211 122.561 9.60156 122.65 9.23438C122.744 8.86719 122.791 8.44531 122.791 7.96875ZM125.732 3.46875H128.75C129.398 3.46875 129.951 3.56641 130.408 3.76172C130.865 3.95703 131.215 4.24609 131.457 4.62891C131.703 5.00781 131.826 5.47656 131.826 6.03516C131.826 6.46094 131.748 6.83594 131.592 7.16016C131.436 7.48438 131.215 7.75781 130.93 7.98047C130.645 8.19922 130.305 8.36914 129.91 8.49023L129.465 8.70703H126.752L126.74 7.54102H128.773C129.125 7.54102 129.418 7.47852 129.652 7.35352C129.887 7.22852 130.063 7.05859 130.18 6.84375C130.301 6.625 130.361 6.37891 130.361 6.10547C130.361 5.80859 130.303 5.55078 130.186 5.33203C130.072 5.10938 129.897 4.93945 129.658 4.82227C129.42 4.70117 129.117 4.64062 128.75 4.64062H127.203V12H125.732V3.46875ZM130.602 12L128.598 8.16797L130.139 8.16211L132.172 11.9238V12H130.602Z" fill="white" fill-opacity="0.2"/>
<path d="M123.289 11.0098L122.912 10.6817L122.91 10.684L123.289 11.0098ZM122.176 11.8359L122.374 12.2949L122.378 12.2934L122.176 11.8359ZM119.299 11.8359L119.095 12.2927L119.1 12.2949L119.299 11.8359ZM117.441 9.70312L116.967 9.86233L116.969 9.86556L117.441 9.70312ZM117.441 5.77148L117.915 5.93178L117.915 5.93068L117.441 5.77148ZM118.168 4.46484L117.791 4.13645L117.791 4.13675L118.168 4.46484ZM119.287 3.63867L119.487 4.09695L119.489 4.09609L119.287 3.63867ZM122.164 3.63867L121.962 4.0961L121.966 4.0976L122.164 3.63867ZM123.283 4.46484L122.904 4.79092L122.906 4.79293L123.283 4.46484ZM124.004 5.77148L123.529 5.92743L123.53 5.93178L124.004 5.77148ZM122.65 6.22852L122.165 6.34736L122.166 6.35345L122.65 6.22852ZM122.246 5.30859L121.837 5.59623L121.842 5.60344L122.246 5.30859ZM121.596 4.74609L121.372 5.19334L121.378 5.196L121.596 4.74609ZM119.856 4.74609L120.076 5.19471L120.082 5.19193L119.856 4.74609ZM119.205 5.30859L118.799 5.01677L118.798 5.01797L119.205 5.30859ZM118.801 6.22852L119.285 6.35346L119.285 6.35221L118.801 6.22852ZM119.211 10.166L118.803 10.4549L118.808 10.462L119.211 10.166ZM119.867 10.7344L119.641 11.1802L119.646 11.183L119.867 10.7344ZM121.607 10.7344L121.828 11.183L121.834 11.1802L121.607 10.7344ZM122.252 10.166L122.661 10.4536L122.663 10.4506L122.252 10.166ZM122.65 9.23438L122.166 9.11068L122.165 9.11554L122.65 9.23438ZM123.762 7.5V7.96875H124.762V7.5H123.762ZM123.762 7.96875C123.762 8.57041 123.683 9.09457 123.535 9.54719L124.485 9.85906C124.672 9.28824 124.762 8.65615 124.762 7.96875H123.762ZM123.535 9.54719C123.385 10.0038 123.175 10.3788 122.912 10.6817L123.666 11.3379C124.028 10.922 124.299 10.4258 124.485 9.85906L123.535 9.54719ZM122.91 10.684C122.65 10.9868 122.339 11.2172 121.974 11.3785L122.378 12.2934C122.88 12.0718 123.311 11.7515 123.668 11.3355L122.91 10.684ZM121.977 11.377C121.613 11.5344 121.201 11.6172 120.734 11.6172V12.6172C121.322 12.6172 121.871 12.5124 122.374 12.2949L121.977 11.377ZM120.734 11.6172C120.272 11.6172 119.862 11.5346 119.497 11.377L119.1 12.2949C119.603 12.5123 120.15 12.6172 120.734 12.6172V11.6172ZM119.502 11.3792C119.14 11.2176 118.825 10.9858 118.555 10.6794L117.804 11.3402C118.168 11.7525 118.599 12.0715 119.095 12.2927L119.502 11.3792ZM118.555 10.6794C118.287 10.375 118.072 9.99858 117.914 9.54069L116.969 9.86556C117.163 10.4311 117.44 10.9257 117.804 11.3402L118.555 10.6794ZM117.915 9.54393C117.764 9.09236 117.684 8.56935 117.684 7.96875H116.684C116.684 8.65721 116.775 9.29045 116.967 9.86232L117.915 9.54393ZM117.684 7.96875V7.5H116.684V7.96875H117.684ZM117.684 7.5C117.684 6.8993 117.764 6.37873 117.915 5.93178L116.968 5.61119C116.775 6.17987 116.684 6.81164 116.684 7.5H117.684ZM117.915 5.93068C118.069 5.4728 118.281 5.09672 118.545 4.79293L117.791 4.13675C117.43 4.55172 117.157 5.04673 116.967 5.61229L117.915 5.93068ZM118.545 4.79323C118.814 4.48424 119.127 4.25397 119.487 4.09694L119.087 3.1804C118.588 3.39837 118.155 3.71888 117.791 4.13645L118.545 4.79323ZM119.489 4.09609C119.853 3.93557 120.261 3.85156 120.723 3.85156V2.85156C120.137 2.85156 119.589 2.95896 119.085 3.18126L119.489 4.09609ZM120.723 3.85156C121.188 3.85156 121.599 3.93577 121.962 4.09609L122.366 3.18126C121.862 2.95876 121.312 2.85156 120.723 2.85156V3.85156ZM121.966 4.0976C122.329 4.25461 122.64 4.48416 122.904 4.79091L123.662 4.13878C123.301 3.71896 122.867 3.39773 122.363 3.17974L121.966 4.0976ZM122.906 4.79293C123.169 5.09584 123.379 5.47077 123.529 5.92742L124.479 5.61555C124.293 5.04877 124.022 4.5526 123.661 4.13675L122.906 4.79293ZM123.53 5.93178C123.682 6.37873 123.762 6.8993 123.762 7.5H124.762C124.762 6.81164 124.67 6.17987 124.478 5.61119L123.53 5.93178ZM123.291 7.96875V7.48828H122.291V7.96875H123.291ZM123.291 7.48828C123.291 6.98033 123.241 6.51692 123.135 6.10358L122.166 6.35345C122.247 6.66668 122.291 7.04311 122.291 7.48828H123.291ZM123.136 6.10968C123.034 5.69381 122.876 5.32363 122.65 5.01375L121.842 5.60344C121.975 5.78574 122.087 6.02884 122.165 6.34735L123.136 6.10968ZM122.655 5.02101C122.434 4.70635 122.153 4.46068 121.814 4.29619L121.378 5.196C121.554 5.28151 121.707 5.41083 121.837 5.59618L122.655 5.02101ZM121.819 4.29888C121.484 4.13114 121.115 4.05273 120.723 4.05273V5.05273C120.979 5.05273 121.192 5.10324 121.372 5.19331L121.819 4.29888ZM120.723 4.05273C120.331 4.05273 119.962 4.13109 119.629 4.30026L120.082 5.19193C120.256 5.10329 120.466 5.05273 120.723 5.05273V4.05273ZM119.635 4.29751C119.301 4.4619 119.022 4.70611 118.799 5.01678L119.611 5.60041C119.747 5.41108 119.902 5.28029 120.076 5.19468L119.635 4.29751ZM118.798 5.01797C118.579 5.32539 118.422 5.69227 118.316 6.10482L119.285 6.35221C119.367 6.03039 119.48 5.78399 119.612 5.59921L118.798 5.01797ZM118.317 6.10358C118.21 6.51692 118.16 6.98033 118.16 7.48828H119.16C119.16 7.04311 119.204 6.66668 119.285 6.35345L118.317 6.10358ZM118.16 7.48828V7.96875H119.16V7.48828H118.16ZM118.16 7.96875C118.16 8.47685 118.21 8.94166 118.316 9.35807L119.285 9.11068C119.204 8.79272 119.16 8.41377 119.16 7.96875H118.16ZM118.316 9.35807C118.422 9.77196 118.581 10.1414 118.803 10.4549L119.619 9.87718C119.482 9.68277 119.367 9.43117 119.285 9.11068L118.316 9.35807ZM118.808 10.462C119.034 10.7693 119.311 11.0128 119.641 11.1802L120.094 10.2885C119.916 10.1982 119.755 10.0627 119.614 9.87006L118.808 10.462ZM119.646 11.183C119.978 11.3464 120.345 11.4219 120.734 11.4219V10.4219C120.476 10.4219 120.264 10.3724 120.088 10.2858L119.646 11.183ZM120.734 11.4219C121.127 11.4219 121.496 11.3468 121.828 11.183L121.387 10.2858C121.212 10.372 120.998 10.4219 120.734 10.4219V11.4219ZM121.834 11.1802C122.166 11.0116 122.442 10.7655 122.661 10.4536L121.843 9.87843C121.711 10.0666 121.557 10.1993 121.381 10.2885L121.834 11.1802ZM122.663 10.4506C122.88 10.1366 123.035 9.76687 123.136 9.35321L122.165 9.11554C122.086 9.43626 121.975 9.6876 121.841 9.88141L122.663 10.4506ZM123.135 9.35807C123.241 8.94166 123.291 8.47685 123.291 7.96875H122.291C122.291 8.41377 122.247 8.79272 122.166 9.11068L123.135 9.35807ZM125.732 3.46875V2.96875H125.232V3.46875H125.732ZM131.457 4.62891L131.035 4.89625L131.038 4.90125L131.457 4.62891ZM130.93 7.98047L131.234 8.3772L131.237 8.37456L130.93 7.98047ZM129.91 8.49023L129.763 8.01224L129.726 8.02365L129.691 8.04068L129.91 8.49023ZM129.465 8.70703V9.20703H129.58L129.684 9.15659L129.465 8.70703ZM126.752 8.70703L126.252 8.71206L126.257 9.20703H126.752V8.70703ZM126.74 7.54102V7.04102H126.235L126.24 7.54604L126.74 7.54102ZM130.18 6.84375L129.742 6.60159L129.741 6.60432L130.18 6.84375ZM130.186 5.33203L129.74 5.55881L129.745 5.56814L130.186 5.33203ZM129.658 4.82227L129.432 5.26805L129.438 5.27094L129.658 4.82227ZM127.203 4.64062V4.14062H126.703V4.64062H127.203ZM127.203 12V12.5H127.703V12H127.203ZM125.732 12H125.232V12.5H125.732V12ZM130.602 12L130.159 12.2317L130.299 12.5H130.602V12ZM128.598 8.16797L128.596 7.66797L127.774 7.6711L128.155 8.39967L128.598 8.16797ZM130.139 8.16211L130.579 7.92437L130.436 7.66097L130.137 7.66211L130.139 8.16211ZM132.172 11.9238H132.672V11.7973L132.612 11.6861L132.172 11.9238ZM132.172 12V12.5H132.672V12H132.172ZM125.732 3.96875H128.75V2.96875H125.732V3.96875ZM128.75 3.96875C129.351 3.96875 129.833 4.05948 130.212 4.22149L130.605 3.30194C130.07 3.07333 129.446 2.96875 128.75 2.96875V3.96875ZM130.212 4.22149C130.585 4.38106 130.852 4.60728 131.035 4.89623L131.88 4.36159C131.578 3.88491 131.145 3.533 130.605 3.30194L130.212 4.22149ZM131.038 4.90125C131.22 5.1818 131.326 5.55033 131.326 6.03516H132.326C132.326 5.4028 132.186 4.83383 131.876 4.35656L131.038 4.90125ZM131.326 6.03516C131.326 6.39942 131.26 6.69788 131.141 6.94309L132.042 7.37723C132.237 6.974 132.326 6.52246 132.326 6.03516H131.326ZM131.141 6.94309C131.019 7.19774 130.847 7.41073 130.622 7.58637L131.237 8.37456C131.583 8.1049 131.852 7.77101 132.042 7.37723L131.141 6.94309ZM130.625 7.58375C130.394 7.76128 130.109 7.90608 129.763 8.01224L130.057 8.96823C130.5 8.83221 130.895 8.63715 131.234 8.37718L130.625 7.58375ZM129.691 8.04068L129.246 8.25748L129.684 9.15659L130.129 8.93979L129.691 8.04068ZM129.465 8.20703H126.752V9.20703H129.465V8.20703ZM127.252 8.70201L127.24 7.53599L126.24 7.54604L126.252 8.71206L127.252 8.70201ZM126.74 8.04102H128.773V7.04102H126.74V8.04102ZM128.773 8.04102C129.182 8.04102 129.561 7.96878 129.888 7.79469L129.417 6.91234C129.275 6.98825 129.069 7.04102 128.773 7.04102V8.04102ZM129.888 7.79469C130.2 7.62786 130.451 7.39104 130.619 7.08318L129.741 6.60432C129.674 6.72615 129.573 6.82918 129.417 6.91234L129.888 7.79469ZM130.617 7.08591C130.783 6.78624 130.861 6.45549 130.861 6.10547H129.861C129.861 6.30232 129.819 6.46376 129.742 6.60159L130.617 7.08591ZM130.861 6.10547C130.861 5.74231 130.789 5.40027 130.626 5.09592L129.745 5.56814C129.816 5.70129 129.861 5.87487 129.861 6.10547H130.861ZM130.631 5.1053C130.466 4.78002 130.208 4.53529 129.879 4.37359L129.438 5.27094C129.585 5.34361 129.679 5.43873 129.74 5.55876L130.631 5.1053ZM129.885 4.37652C129.555 4.20898 129.168 4.14062 128.75 4.14062V5.14062C129.066 5.14062 129.285 5.19337 129.432 5.26801L129.885 4.37652ZM128.75 4.14062H127.203V5.14062H128.75V4.14062ZM126.703 4.64062V12H127.703V4.64062H126.703ZM127.203 11.5H125.732V12.5H127.203V11.5ZM126.232 12V3.46875H125.232V12H126.232ZM131.045 11.7683L129.041 7.93627L128.155 8.39967L130.159 12.2317L131.045 11.7683ZM128.6 8.66796L130.141 8.66211L130.137 7.66211L128.596 7.66797L128.6 8.66796ZM129.699 8.39985L131.732 12.1616L132.612 11.6861L130.579 7.92437L129.699 8.39985ZM131.672 11.9238V12H132.672V11.9238H131.672ZM132.172 11.5H130.602V12.5H132.172V11.5Z" fill="white" fill-opacity="0.1"/>
</svg>
