<svg width="413" height="314" viewBox="0 0 413 314" fill="none" xmlns="http://www.w3.org/2000/svg">
<g clip-path="url(#clip0_238_200)">
<path d="M250.429 94.6212C250.943 94.6447 251.452 94.51 251.887 94.2353C252.321 93.9605 252.661 93.5589 252.859 93.085C253.058 92.6111 253.105 92.0877 252.996 91.5858C252.887 91.0839 252.625 90.6277 252.248 90.279C252.184 90.0279 252.139 89.8476 252.076 89.5965C252.098 89.5419 252.121 89.4873 252.144 89.4327C254.454 83.9331 262.281 83.971 264.571 89.4788C266.604 94.3673 269.191 99.2641 269.828 104.433C270.109 106.717 269.991 109.033 269.479 111.278C274.252 100.879 276.731 89.5762 276.747 78.1365C276.748 75.2658 276.589 72.3974 276.269 69.5445C276.005 67.2058 275.638 64.8837 275.169 62.5782C272.611 50.0691 267.117 38.3446 259.14 28.3674C255.279 26.2636 252.156 23.0285 250.193 19.0981C249.482 17.6852 248.979 16.177 248.701 14.6203C249.136 14.6773 250.343 8.05326 250.015 7.64684C250.622 6.72707 251.708 6.26986 252.371 5.37233C255.668 0.908634 260.21 1.68803 262.581 7.75384C267.647 10.3069 267.696 14.541 264.588 18.6132C262.61 21.2039 262.339 24.7095 260.603 27.4831C260.782 27.7113 260.968 27.9324 261.146 28.1606C264.409 32.3506 267.253 36.85 269.637 41.5941C268.963 36.3324 269.959 29.9935 271.656 25.9074C273.589 21.2517 277.211 17.3307 280.401 13.3059C284.233 8.47142 292.09 10.5813 292.765 16.7097C292.771 16.769 292.778 16.8284 292.784 16.8876C292.31 17.1546 291.846 17.4379 291.392 17.7376C290.822 18.118 290.381 18.6614 290.125 19.2968C289.87 19.9321 289.812 20.6297 289.961 21.2982C290.109 21.9666 290.456 22.5748 290.956 23.0429C291.457 23.511 292.087 23.8173 292.764 23.9216L292.834 23.9323C292.665 25.6376 292.367 27.3276 291.941 28.9877C296.034 44.7916 287.199 50.5476 274.584 50.8062C274.305 50.9488 274.034 51.0914 273.755 51.2269C276.151 58.0057 277.653 65.0668 278.225 72.2326C278.549 76.4602 278.53 80.707 278.168 84.9315L278.19 84.7818C279.104 80.0842 281.613 75.8456 285.294 72.7816C290.761 68.2967 298.485 66.6451 304.383 63.0401C307.223 61.3048 310.861 63.5473 310.365 66.8344C310.358 66.8869 310.349 66.9394 310.341 66.9919C309.462 67.3495 308.606 67.7614 307.778 68.2254C307.304 68.4923 306.84 68.7757 306.387 69.0753C305.817 69.4557 305.375 69.9991 305.119 70.6345C304.864 71.2699 304.806 71.9675 304.955 72.6359C305.103 73.3044 305.45 73.9125 305.95 74.3807C306.451 74.8488 307.081 75.1551 307.759 75.2594L307.828 75.2701C307.878 75.2772 307.921 75.2843 307.971 75.2915C306.469 78.8736 304.36 82.1707 301.738 85.0385C299.179 98.8347 288.189 100.144 276.433 96.126H276.426C275.136 101.723 273.267 107.172 270.849 112.383H250.929C250.857 112.162 250.793 111.934 250.729 111.713C252.573 111.828 254.424 111.718 256.241 111.385C254.763 109.574 253.285 107.748 251.807 105.937C251.774 105.903 251.743 105.868 251.714 105.83C250.964 104.903 250.207 103.984 249.458 103.057L249.457 103.056C249.417 100.214 249.744 97.3796 250.429 94.6215L250.429 94.6212Z" fill="#F2F2F2"/>
<path d="M314.389 43.7098C310.685 30.2238 340.56 18.6593 348.405 29.5196C349.496 27.9755 353.528 27.0377 355.377 27.5113C357.227 27.985 358.783 29.1691 360.301 30.3153C362.387 31.9162 364.55 33.5739 365.831 35.8758C367.121 38.1682 367.32 41.2942 365.584 43.2835C364.209 44.8654 360.149 45.8885 358.081 46.3053C356.639 46.5989 355.425 46.8357 354.381 47.0062C353.434 45.6426 352.997 43.9892 353.148 42.3362C352.446 42.8093 351.857 43.4318 351.424 44.1589C350.991 44.8861 350.725 45.7 350.644 46.5421C350.615 46.8926 362.302 89.8325 362.302 89.8325C360.898 90.6306 359.421 91.2935 357.891 91.8123C354.865 87.1934 352.547 82.1487 351.014 76.8454C350.662 80.3915 350.706 83.9659 351.147 87.5022C351.381 89.4852 351.717 91.4549 352.152 93.4037C338.265 96.3971 317.377 95.412 308.29 82.6806C308.288 82.6279 308.287 82.5752 308.285 82.5225C308.278 82.02 308.096 81.5355 307.771 81.1522C307.445 80.7688 306.997 80.5103 306.501 80.421C306.006 80.3317 305.495 80.4172 305.056 80.6627C304.617 80.9083 304.277 81.2987 304.094 81.767C303.874 82.3287 303.671 82.8149 303.49 83.2016C300.843 73.7478 304.268 62.8068 314.389 43.7098Z" fill="#2F2E41"/>
<path d="M290.757 269.807V270.248C290.74 270.102 290.74 269.953 290.757 269.807Z" fill="#2F2E41"/>
<path d="M304.357 193.485C304.71 193.39 305.07 193.32 305.433 193.276C305.016 193.344 304.657 193.414 304.357 193.485Z" fill="#2F2E41"/>
<path d="M304.042 193.565C304.138 193.539 304.244 193.512 304.357 193.485C304.252 193.513 304.151 193.533 304.042 193.565Z" fill="#2F2E41"/>
<path d="M404.518 313.998H353.615C352.889 313.419 352.384 312.609 352.186 311.702C351.987 310.796 352.107 309.849 352.525 309.02C353.916 305.835 351.191 302.925 351.191 302.925C350.266 301.843 349.622 300.549 349.318 299.159C349.014 297.769 349.058 296.325 349.446 294.956C350.795 290.252 345.509 276.975 345.509 276.975C345.509 276.975 342.66 294.119 339.169 313.998H290.757C289.946 312.619 289.519 311.048 289.519 309.448C289.519 307.849 289.946 306.278 290.757 304.899C293.579 300.121 290.757 299.205 290.757 299.205C290.757 299.205 287.936 293.86 290.757 289.978C293.579 286.097 290.757 270.248 290.757 270.248C290.864 270.949 291.667 269.675 292.905 267.004C294.789 262.94 297.668 255.631 300.577 247.146C302.656 241.09 304.753 234.427 306.505 227.913H306.509C306.968 226.201 307.403 224.506 307.814 222.825C308.618 219.53 309.307 216.328 309.83 213.321C310.966 206.845 311.34 201.282 310.468 197.663C309.745 194.652 308.163 192.992 305.433 193.277C306.896 193.034 309.039 192.805 311.68 192.589C312.156 192.55 312.65 192.512 313.16 192.47C332.858 190.983 375.12 190.13 375.12 190.13L388.065 213.278L404.459 242.602C404.459 242.602 404.012 281.94 404.518 313.998Z" fill="#2F2E41"/>
<path d="M350.186 90.0759L320.362 83.7583L314.441 95.6613L294.499 107.19C294.499 107.19 307.353 159.675 307.28 167.057C307.094 185.798 277.066 227.809 299.747 224.577C322.428 221.345 327.035 207.808 334.316 209.948C340.883 211.879 348.901 220.467 354.269 214.325C359.637 208.182 361.528 215.275 364.922 215.52C366.535 215.637 365.564 207.764 369.623 215.765C373.681 223.765 395.203 212.996 387.909 205.711C375.76 193.58 373.291 104.149 373.291 104.149L359.767 99.9932L350.186 90.0759Z" fill="#E6E6E6"/>
<path d="M293.935 280.678C295.134 279.251 295.727 277.413 295.589 275.556C295.452 273.699 294.594 271.969 293.198 270.733C292.91 270.487 292.603 270.264 292.278 270.068L297.265 245.63L285.737 238.74L282.531 272.955C281.822 274.362 281.598 275.963 281.896 277.509C282.194 279.055 282.995 280.459 284.176 281.503C284.854 282.09 285.641 282.538 286.492 282.822C287.343 283.105 288.242 283.218 289.137 283.155C290.032 283.092 290.906 282.853 291.708 282.453C292.511 282.052 293.226 281.498 293.814 280.821C293.855 280.774 293.896 280.726 293.935 280.678Z" fill="#A0616A"/>
<path d="M329.728 151.858C329.656 151.072 328.652 150.716 327.262 150.223C325.865 149.793 324.537 149.166 323.32 148.359C320.241 146.138 321.453 143.815 323.128 140.604C323.456 139.98 323.796 139.33 324.115 138.655C325.063 136.655 323.553 128.403 319.62 114.126C318.408 109.731 318.412 106.626 317.574 104.567C316.741 102.507 315.069 101.492 310.515 101.28C305.01 101.002 299.619 102.916 295.525 106.601C295.414 106.698 295.299 106.805 295.189 106.907C294.98 107.102 294.776 107.302 294.576 107.505C290.79 111.309 288.623 116.428 288.529 121.791L288.508 122.704L287.568 166.327L284.927 204.607L281.287 257.338L283.983 257.47L294.742 258.005L296.048 258.069L299.144 245.099L302.869 229.493L304.238 223.759L308.486 205.974L310.468 197.663L311.68 192.588L312.173 190.516L314.58 180.443C314.636 180.231 320.173 158.415 326.556 154.767C328.937 153.408 329.796 152.618 329.728 151.858Z" fill="#E6E6E6"/>
<path d="M401.347 280.418C400.002 279.128 399.214 277.364 399.151 275.503C399.089 273.642 399.756 271.83 401.01 270.452C401.27 270.176 401.552 269.922 401.853 269.692L394.267 245.93L404.987 237.843L411.855 271.517C412.711 272.839 413.105 274.407 412.976 275.976C412.846 277.545 412.2 279.028 411.138 280.191C410.527 280.848 409.793 281.378 408.978 281.751C408.162 282.124 407.281 282.333 406.384 282.366C405.487 282.399 404.593 282.256 403.752 281.944C402.911 281.631 402.14 281.157 401.482 280.547C401.437 280.505 401.391 280.462 401.347 280.418Z" fill="#A0616A"/>
<path d="M406.591 228.855C406.591 228.855 398.23 199.479 400.78 196.299C403.33 193.119 395.799 192.498 399.044 186.575C402.289 180.653 397.81 179.662 397.81 179.662L395.38 166.045L391.034 132.597L390.903 131.602L389.639 121.871C389.286 119.092 388.375 116.412 386.961 113.992C385.547 111.572 383.66 109.462 381.41 107.787C381.295 107.699 381.178 107.615 381.061 107.53C380.526 107.146 379.979 106.789 379.421 106.461C375.25 104.004 370.352 103.075 365.569 103.834C356.557 105.236 359.362 108.592 357.9 117.582C355.525 132.201 354.909 140.565 356.067 142.454C356.457 143.091 356.867 143.699 357.258 144.284C359.27 147.3 360.725 149.476 357.901 152.02C356.776 152.949 355.524 153.714 354.183 154.292C352.855 154.933 351.895 155.394 351.908 156.183C351.923 156.947 352.861 157.637 355.373 158.732C358.417 160.062 361.687 165.092 364.365 170.23C366.49 174.372 368.385 178.627 370.042 182.977L393.06 247.625L396.814 258.168L398.109 257.963L408.744 256.279L411.412 255.858L406.591 228.855Z" fill="#E6E6E6"/>
<path d="M337.603 83.3119C351.041 83.3119 361.935 72.4333 361.935 59.0139C361.935 45.5944 351.041 34.7158 337.603 34.7158C324.165 34.7158 313.272 45.5944 313.272 59.0139C313.272 72.4333 324.165 83.3119 337.603 83.3119Z" fill="#A0616A"/>
<path d="M301.109 45.6043C297.405 32.1183 327.28 20.5538 335.125 31.4141C336.216 29.8701 340.247 28.9323 342.097 29.4059C343.947 29.8795 345.503 31.0636 347.02 32.2098C349.107 33.8107 351.27 35.4685 352.551 37.7703C353.841 40.0627 354.04 43.1888 352.304 45.178C350.929 46.76 346.869 47.783 344.801 48.1998C343.359 48.4935 342.145 48.7303 341.101 48.9008C340.153 47.5372 339.717 45.8838 339.868 44.2308C339.166 44.7039 338.577 45.3263 338.144 46.0535C337.711 46.7807 337.445 47.5945 337.364 48.4367C337.335 48.7871 349.022 91.7271 349.022 91.7271C347.618 92.5251 346.141 93.188 344.611 93.7069C341.585 89.088 339.267 84.0432 337.734 78.7399C337.381 82.2861 337.426 85.8605 337.867 89.3968C338.101 91.3798 338.436 93.3495 338.872 95.2983C324.985 98.2917 304.097 97.3065 295.01 84.5752C295.008 84.5225 295.006 84.4698 295.005 84.417C294.998 83.9145 294.816 83.4301 294.491 83.0467C294.165 82.6633 293.716 82.4049 293.221 82.3156C292.726 82.2263 292.215 82.3118 291.776 82.5573C291.337 82.8029 290.997 83.1932 290.814 83.6616C290.594 84.2233 290.391 84.7095 290.21 85.0962C287.563 75.6423 290.988 64.7013 301.109 45.6043Z" fill="#2F2E41"/>
<path d="M180.439 129.565C179.925 129.588 179.417 129.453 178.982 129.179C178.547 128.904 178.208 128.502 178.009 128.028C177.811 127.554 177.763 127.031 177.873 126.529C177.982 126.027 178.243 125.571 178.621 125.222C178.684 124.971 178.73 124.791 178.793 124.54C178.77 124.485 178.747 124.431 178.725 124.376C176.415 118.876 168.588 118.914 166.298 124.422C164.265 129.311 161.677 134.207 161.04 139.376C160.76 141.661 160.878 143.977 161.39 146.221C156.616 135.822 154.137 124.52 154.121 113.08C154.12 110.209 154.28 107.341 154.6 104.488C154.864 102.149 155.231 99.8271 155.699 97.5217C158.258 85.0126 163.752 73.288 171.729 63.3108C175.59 61.207 178.712 57.972 180.675 54.0415C181.387 52.6286 181.889 51.1204 182.168 49.5637C181.732 49.6207 180.525 42.9967 180.854 42.5903C180.247 41.6705 179.161 41.2133 178.498 40.3158C175.201 35.8521 170.659 36.6314 168.287 42.6973C163.222 45.2503 163.173 49.4844 166.281 53.5566C168.258 56.1473 168.53 59.6529 170.265 62.4266C170.087 62.6548 169.901 62.8758 169.722 63.104C166.459 67.2941 163.615 71.7934 161.231 76.5375C161.906 71.2758 160.91 64.937 159.212 60.8509C157.28 56.1952 153.657 52.2741 150.468 48.2493C146.636 43.4148 138.779 45.5247 138.104 51.6531C138.097 51.7125 138.091 51.7718 138.085 51.8311C138.559 52.098 139.022 52.3813 139.476 52.681C140.046 53.0614 140.488 53.6048 140.743 54.2402C140.999 54.8755 141.056 55.5731 140.908 56.2416C140.76 56.9101 140.413 57.5182 139.912 57.9863C139.412 58.4545 138.782 58.7607 138.104 58.8651L138.035 58.8757C138.204 60.581 138.502 62.271 138.927 63.9311C134.835 79.735 143.67 85.4911 156.285 85.7496C156.563 85.8922 156.835 86.0348 157.113 86.1703C154.718 92.9492 153.215 100.01 152.643 107.176C152.32 111.404 152.339 115.65 152.701 119.875L152.679 119.725C151.765 115.028 149.256 110.789 145.575 107.725C140.107 103.24 132.383 101.589 126.485 97.9835C123.646 96.2482 120.008 98.4907 120.503 101.778C120.511 101.83 120.519 101.883 120.527 101.935C121.407 102.293 122.263 102.705 123.091 103.169C123.564 103.436 124.028 103.719 124.482 104.019C125.052 104.399 125.494 104.943 125.749 105.578C126.005 106.213 126.062 106.911 125.914 107.579C125.766 108.248 125.418 108.856 124.918 109.324C124.418 109.792 123.788 110.099 123.11 110.203L123.041 110.213C122.991 110.221 122.948 110.228 122.898 110.235C124.4 113.817 126.509 117.114 129.131 119.982C131.69 133.778 142.68 135.087 154.436 131.069H154.443C155.733 136.667 157.601 142.115 160.019 147.326H179.94C180.011 147.105 180.076 146.877 180.14 146.656C178.296 146.772 176.445 146.662 174.628 146.328C176.106 144.517 177.584 142.692 179.062 140.881C179.095 140.847 179.126 140.811 179.155 140.774C179.904 139.847 180.661 138.927 181.411 138L181.411 137.999C181.451 135.158 181.125 132.323 180.44 129.565L180.439 129.565Z" fill="#F2F2F2"/>
<path d="M87.4871 29.5201C87.0349 30.5722 73.0941 30.4595 72.4556 31.3964C67.5328 38.6297 85.2785 69.4057 80.3557 76.6484L79.6699 77.4646C81.2759 76.7255 82.8187 75.8563 84.2827 74.8659C84.4142 71.9013 84.5458 68.9272 84.6867 65.9626C86.1612 67.8463 87.3513 69.9356 88.2191 72.1639C89.3652 71.3571 90.3055 69.8614 95.2181 66.9196C97.207 64.7378 99.4998 62.853 102.026 61.3232L87.4871 29.5201Z" fill="#2F2E41"/>
<path d="M97.6103 88.8011C96.0719 87.8004 94.3167 87.1804 92.4903 86.9927C90.6639 86.8049 88.819 87.0549 87.1087 87.7217C85.3984 88.3886 83.872 89.4531 82.6562 90.827C81.4404 92.2009 80.5702 93.8445 80.1179 95.6215L58.9327 150.745L22.5179 130.1C22.358 127.727 21.4496 125.466 19.9231 123.64C18.3966 121.814 16.3303 120.518 14.0206 119.938C11.711 119.358 9.27658 119.522 7.0666 120.409C4.85662 121.296 2.98459 122.859 1.71902 124.873C0.453441 126.888 -0.140665 129.252 0.021909 131.624C0.184483 133.997 1.09539 136.258 2.62397 138.082C4.15255 139.905 6.22028 141.199 8.5306 141.777C10.8409 142.355 13.2751 142.187 15.4841 141.298C23.1528 149.471 56.3992 182.982 70.1629 169.889C81.7321 158.883 98.4277 116.229 102.447 101.499C103.09 99.1441 102.969 96.6455 102.1 94.3635C101.231 92.0815 99.6588 90.1339 97.6103 88.8011Z" fill="#FFB6B6"/>
<path d="M57.8303 172.198L64.5157 202.374L113.401 206.789L117.894 180.515L57.8303 172.198Z" fill="#FFB6B6"/>
<path d="M132.504 249.579C132.482 250.012 132.455 250.44 132.424 250.873C131.955 257.125 131.419 264.336 130.839 272.238C129.923 284.779 128.9 299.058 127.869 313.998H25.3306L45.2168 254.308C45.2168 254.308 53.2464 249.893 49.1584 242.477C45.0705 235.061 53.1141 240.971 53.1889 230.379C53.2638 219.788 60.4716 208.52 60.4716 208.52L61.6551 192.483L62.3294 192.496L115.691 193.384L116.664 193.402L118.303 207.168C128.254 218.994 133.331 234.155 132.504 249.579Z" fill="#2F2E41"/>
<path d="M88.3416 74.1773L112.674 72.9255L123.976 90.7593C123.976 90.7593 145.241 94.3096 143.767 119.333C142.293 144.357 117.894 166.315 117.894 166.315L118.937 162.744L117.126 167.913L117.358 170.815L119.829 173.888L120.084 177.067L117.894 182.096C118.179 182.552 118.33 183.078 118.33 183.615C118.331 184.152 118.18 184.679 117.896 185.135C117.612 185.591 117.206 185.958 116.723 186.196C116.24 186.433 115.701 186.53 115.166 186.476L80.0067 182.958C79.2062 180.759 78.5639 178.128 75.3553 182.508L72.0433 182.187L58.2751 180.855L57.4647 177.907C57.0043 176.232 56.9325 174.474 57.2549 172.767C57.5773 171.06 58.2854 169.449 59.3253 168.057C58.1293 164.317 58.4426 160.259 60.1983 156.747L60.2641 156.615L61.7262 155.398C61.7262 155.398 45.7302 131.399 64.0931 113.324L71.4631 100.812L79.7095 90.765L88.3416 74.1773Z" fill="#FE9146"/>
<path d="M94.3977 63.65C107.141 63.65 117.472 53.3335 117.472 40.6076C117.472 27.8816 107.141 17.5652 94.3977 17.5652C81.6542 17.5652 71.3235 27.8816 71.3235 40.6076C71.3235 53.3335 81.6542 63.65 94.3977 63.65Z" fill="#FFB6B6"/>
<path d="M111.923 73.8018C110.044 72.2339 108.736 70.0902 108.202 67.7037C107.776 70.6013 107.887 73.5526 108.531 76.4099C107.282 77.348 106.07 78.2393 104.924 79.0461C104.056 76.8178 102.866 74.7285 101.391 72.8448C101.25 75.8094 101.119 78.7835 100.987 81.7481C99.5232 82.7385 97.9804 83.6077 96.3744 84.3468L97.0602 83.5306C101.983 76.2879 89.2438 62.9565 94.1666 55.7232C95.5477 53.6967 89.3096 37.6821 84.5559 36.9597C80.3283 36.3218 80.5068 37.5414 76.4107 38.4327C75.9853 36.6611 75.325 34.9542 74.4472 33.3571C74.6809 35.1367 74.627 36.9422 74.2875 38.7047C72.8313 38.761 71.6857 37.8344 70.1351 37.5977C60.2425 36.0873 61.2477 25.4015 64.0003 22.0147C66.7624 18.6373 75.9316 17.624 80.1592 16.5263C80.5443 16.1511 81.418 16.3856 81.8032 16.0291C89.9052 8.62458 100.741 7.39833 110.492 10.6802C120.891 14.18 127.375 20.9538 130.703 31.3964L131.657 39.7531C132.513 42.4401 131.436 54.9423 130.703 57.6652C127.851 68.2497 121.779 62.9659 111.923 73.8018Z" fill="#2F2E41"/>
<path d="M145.567 182.971L144.659 112.32C144.611 109.326 143.387 106.472 141.251 104.372C139.115 102.272 136.237 101.095 133.24 101.095C131.689 101.095 130.154 101.411 128.73 102.022C127.305 102.634 126.02 103.529 124.953 104.652C123.886 105.776 123.059 107.105 122.523 108.558C121.987 110.011 121.753 111.558 121.835 113.105L125.032 186.465L125.092 231.123C123.208 231.921 121.616 233.278 120.532 235.012C119.447 236.745 118.923 238.769 119.031 240.81C119.139 242.851 119.873 244.809 121.134 246.418C122.396 248.028 124.122 249.21 126.08 249.806C128.037 250.401 130.131 250.38 132.077 249.746C134.022 249.112 135.725 247.895 136.953 246.26C138.182 244.626 138.877 242.654 138.944 240.611C139.011 238.569 138.447 236.555 137.328 234.844L145.567 182.971Z" fill="#FFB6B6"/>
<path d="M264.655 274.376C264.655 274.376 263.25 299.609 262.605 314H214.238C213.242 300.904 212.907 291.282 212.907 291.282L210.26 314H161.371L158.34 271.925L172.987 235.668C172.987 235.668 252.364 230.17 259.727 237.144C267.085 244.113 264.655 274.376 264.655 274.376Z" fill="#2F2E41"/>
<path d="M221.884 62.1134C236.476 62.1134 248.304 50.3013 248.304 35.7302C248.304 21.1592 236.476 9.34705 221.884 9.34705C207.293 9.34705 195.465 21.1592 195.465 35.7302C195.465 50.3013 207.293 62.1134 221.884 62.1134Z" fill="#FFB6B6"/>
<path d="M252.679 27.1573C249.966 28.393 248.207 37.3423 246.074 35.2618C243.941 33.1813 244.084 30.4738 241.208 29.7059C238.886 29.0832 236.387 29.7949 234.269 30.9173C233.891 31.1154 233.524 31.3307 233.167 31.5449C232.931 31.3875 232.696 31.2394 232.444 31.1027C230.549 30.0902 228.338 29.8418 226.265 30.4087C227.903 30.9565 229.327 32.0045 230.336 33.4046C229.627 33.879 228.909 34.3546 228.174 34.7761C222.038 38.3121 213.307 30.6231 206.848 27.7345C210.894 35.3158 208.902 38.4555 205.389 46.2961L205.268 46.7426C205.467 44.7775 199.378 43.313 199.731 46.0793C199.982 48.0433 201.684 52.4089 202.637 54.1429C195.847 46.302 191.206 36.7068 192.186 26.8086C192.399 24.7293 192.334 22.5354 193.408 20.7306C194.483 18.9352 196.725 17.6753 198.708 18.36C198.54 15.2033 199.231 12.0602 200.709 9.26476C202.187 6.46933 204.396 4.12607 207.101 2.48412C209.806 0.842159 212.906 -0.037125 216.071 -0.0602613C219.237 -0.0833977 222.349 0.750484 225.078 2.35272C227.614 3.83849 229.73 5.93983 232.054 7.75241C234.378 9.56497 237.057 11.1449 240.004 11.2946C241.873 11.3846 243.908 10.9288 245.514 11.8957C247.374 13.0176 247.693 15.3666 247.972 17.6269C246.313 17.7902 244.74 18.4439 243.454 19.5045C245.171 19.3296 246.9 19.6998 248.394 20.5624C248.422 20.5753 248.449 20.5906 248.474 20.6084C249.458 24.3439 249.357 25.172 252.679 27.1573Z" fill="#2F2E41"/>
<path d="M161.488 248.432C183.986 222.133 176.387 188.684 167.457 154.918L169.157 105.036C169.24 102.589 169.912 100.198 171.115 98.0647C172.318 95.9316 174.018 94.119 176.071 92.7799L199.039 77.7956L207.978 64.8882L232.62 67.349L246.285 81.7802L261.411 93.3114C265.209 96.2067 268.098 100.126 269.739 104.607C271.38 109.088 271.704 113.945 270.672 118.604L256.198 183.972C256.198 183.972 262.252 217.86 258.558 221.603C254.864 225.346 245.345 221.605 252.893 225.806C261.952 230.848 270.188 229.918 265.604 234.495C261.02 239.073 266.822 245.437 266.822 245.437L161.488 248.432Z" fill="#FE9146"/>
<path d="M171.107 286.653L174.858 259.968L159.892 255.701L156.931 284.055C155.693 285.189 154.795 286.646 154.34 288.261C153.885 289.877 153.891 291.587 154.355 293.2C154.82 294.812 155.726 296.263 156.972 297.39C158.217 298.516 159.753 299.274 161.406 299.577C163.059 299.879 164.763 299.716 166.328 299.104C167.893 298.493 169.256 297.457 170.264 296.115C171.272 294.772 171.885 293.175 172.034 291.504C172.183 289.832 171.862 288.152 171.107 286.653Z" fill="#FFB6B6"/>
<path d="M199.6 82.606C199.6 82.606 157 96.4519 155.984 106.583C154.968 116.714 155.305 122.915 150.809 163.455L151.046 272.657C151.046 272.657 179.607 278.763 176.678 272.234C173.749 265.705 174.771 262.633 174.771 262.633C174.771 262.633 180.894 260.22 179.361 252.554C177.829 244.888 185.516 206.898 185.516 206.898L190.367 138.764L199.6 82.606Z" fill="#FE9146"/>
<path d="M252.127 285.24L250.131 258.367L265.345 255.086L266.443 283.573C267.605 284.785 268.405 286.298 268.753 287.939C269.101 289.581 268.984 291.287 268.415 292.866C267.845 294.445 266.846 295.834 265.529 296.876C264.213 297.919 262.631 298.575 260.962 298.769C259.293 298.963 257.603 298.689 256.081 297.976C254.56 297.264 253.267 296.142 252.349 294.736C251.432 293.331 250.924 291.697 250.885 290.02C250.846 288.342 251.276 286.687 252.127 285.24Z" fill="#FFB6B6"/>
<path d="M237.051 79.7693C237.051 79.7693 278.654 96.3663 279.005 106.542C279.355 116.717 278.613 122.884 280.446 163.63L273.062 272.583C273.062 272.583 244.162 276.812 247.513 270.488C250.863 264.164 250.044 261.032 250.044 261.032C250.044 261.032 244.091 258.225 246.123 250.675C248.154 243.126 242.97 204.715 242.97 204.715L242.589 136.409L237.051 79.7693Z" fill="#FE9146"/>
</g>
<defs>
<clipPath id="clip0_238_200">
<rect width="413" height="314" fill="white"/>
</clipPath>
</defs>
</svg>
