<svg width="42" height="42" viewBox="0 0 42 42" fill="none" xmlns="http://www.w3.org/2000/svg">
<path d="M20.9975 1C9.95195 1 1 9.95041 1 20.988C1 26.0526 2.90268 30.6618 6.01033 34.1839C8.59893 28.4862 14.3278 24.515 20.9975 24.515C27.6674 24.515 33.4011 28.4862 35.9897 34.1839C39.0973 30.6618 41 26.0526 41 20.988C41 9.95041 32.0431 1 20.9975 1ZM20.9975 7.26326C24.4195 7.26326 27.1974 10.0342 27.1974 13.4537C27.1974 16.873 24.4195 19.6441 20.9975 19.6441C17.5757 19.6441 14.8026 16.873 14.8026 13.4537C14.8026 10.0342 17.5757 7.26326 20.9975 7.26326Z" stroke="white" stroke-miterlimit="10"/>
<path d="M20.9974 7.26328C17.5757 7.26328 14.8025 10.0343 14.8025 13.4537C14.8025 16.873 17.5757 19.6442 20.9974 19.6442C24.4194 19.6442 27.1973 16.873 27.1973 13.4537C27.1973 10.0343 24.4194 7.26328 20.9974 7.26328Z" stroke="white" stroke-miterlimit="10"/>
<path d="M20.9972 24.515C14.3275 24.515 8.5986 28.4862 6.01001 34.1839C9.67478 38.3376 15.0201 40.9711 20.9972 40.9711C26.9745 40.9711 32.3246 38.3376 35.9893 34.1839C33.4008 28.4862 27.6671 24.515 20.9972 24.515Z" stroke="white" stroke-miterlimit="10"/>
</svg>
